Coordinates
version=1
nRows=19
nColumns=34
inDegrees=yes

Units are S.I. units (second, meters, Newtons, ...)
If the header above contains a line with 'inDegrees', this indicates whether rotational values are in degrees (yes) or radians (no).

endheader
time	pelvis_tilt	pelvis_list	pelvis_rotation	pelvis_tx	pelvis_ty	pelvis_tz	hip_flexion_r	hip_adduction_r	hip_rotation_r	knee_angle_r	ankle_angle_r	subtalar_angle_r	mtp_angle_r	hip_flexion_l	hip_adduction_l	hip_rotation_l	knee_angle_l	ankle_angle_l	subtalar_angle_l	mtp_angle_l	lumbar_extension	lumbar_bending	lumbar_rotation	arm_flex_r	arm_add_r	arm_rot_r	elbow_flex_r	pro_sup_r	arm_flex_l	arm_add_l	arm_rot_l	elbow_flex_l	pro_sup_l
      0.00000000	      0.62600195	     -2.61668678	    153.66361916	      0.28585772	      1.06924798	     -0.15371075	     20.75587254	     -6.64905521	     -2.46481118	     94.71361080	      0.00000000	      0.00000000	      0.00000000	     17.43771708	     -7.95347626	     -2.13537683	     96.37645400	      0.00000000	      0.00000000	      0.00000000	     -2.07358701	      3.05809493	      2.55912713	      0.00000000	      0.00000000	      0.00000000	      0.00000000	      0.00000000	      0.00000000	      0.00000000	      0.00000000	      0.00000000	      0.00000000
      0.01666670	      0.79945768	     -1.27878477	    153.70171619	      0.28625780	      1.07429066	     -0.15311182	     22.71058738	     -5.07950986	     -2.55846241	     99.64587988	      0.00000000	      0.00000000	      0.00000000	     20.16379670	     -8.72102336	     -2.01027852	    100.63140150	      0.00000000	      0.00000000	      0.00000000	     -2.97405222	      2.35964580	      1.49400051	      0.00000000	      0.00000000	      0.00000000	      0.00000000	      0.00000000	      0.00000000	      0.00000000	      0.00000000	      0.00000000	      0.00000000
      0.03333330	      0.70233318	     -1.14915616	    153.72472227	      0.28710460	      1.07568268	     -0.15366216	     22.58184605	     -4.14238507	     -2.58418752	     99.01291082	      0.00000000	      0.00000000	      0.00000000	     20.81089713	     -8.23290956	     -2.02662656	    100.69259159	      0.00000000	      0.00000000	      0.00000000	     -2.91093461	      0.58081224	      1.29812235	      0.00000000	      0.00000000	      0.00000000	      0.00000000	      0.00000000	      0.00000000	      0.00000000	      0.00000000	      0.00000000	      0.00000000
      0.05000000	      1.06448525	     -1.37713748	    153.85315125	      0.28703654	      1.07592026	     -0.15368103	     23.33803642	     -3.85840250	     -2.92234442	     97.87211757	      0.00000000	      0.00000000	      0.00000000	     21.10573511	     -7.60456139	     -1.82944473	     99.54393262	      0.00000000	      0.00000000	      0.00000000	     -2.50927078	     -0.05485815	      0.36242539	      0.00000000	      0.00000000	      0.00000000	      0.00000000	      0.00000000	      0.00000000	      0.00000000	      0.00000000	      0.00000000	      0.00000000
      0.06666670	      1.64791799	     -1.31982237	    154.15940346	      0.28685372	      1.07654938	     -0.15315420	     23.65430589	     -3.35539147	     -3.57797560	     96.74531660	      0.00000000	      0.00000000	      0.00000000	     21.65022186	     -7.46224489	     -1.45505038	     99.02192229	      0.00000000	      0.00000000	      0.00000000	     -2.11320969	      0.20064523	      0.33178722	      0.00000000	      0.00000000	      0.00000000	      0.00000000	      0.00000000	      0.00000000	      0.00000000	      0.00000000	      0.00000000	      0.00000000
      0.08333330	      1.77288529	     -1.36051424	    154.22328608	      0.28710614	      1.07727438	     -0.15298861	     23.84430779	     -3.17972962	     -3.69731687	     96.64101156	      0.00000000	      0.00000000	      0.00000000	     21.78439508	     -7.26359186	     -1.38830425	     98.55193893	      0.00000000	      0.00000000	      0.00000000	     -2.25599705	      0.26367217	      0.33342953	      0.00000000	      0.00000000	      0.00000000	      0.00000000	      0.00000000	      0.00000000	      0.00000000	      0.00000000	      0.00000000	      0.00000000
      0.10000000	      2.11573713	     -1.43392664	    154.66783576	      0.28679796	      1.07766805	     -0.15245328	     23.91061757	     -3.16922752	     -4.20691255	     96.40911743	      0.00000000	      0.00000000	      0.00000000	     22.31481391	     -7.07557384	     -0.90513233	     98.50876971	      0.00000000	      0.00000000	      0.00000000	     -1.92430402	      0.44448243	      0.47714478	      0.00000000	      0.00000000	      0.00000000	      0.00000000	      0.00000000	      0.00000000	      0.00000000	      0.00000000	      0.00000000	      0.00000000
      0.11666670	      2.25313856	     -1.47782233	    154.73524587	      0.28687205	      1.07810870	     -0.15248096	     23.99784462	     -3.10331147	     -4.27196917	     96.41176806	      0.00000000	      0.00000000	      0.00000000	     22.44414326	     -7.04683261	     -0.85306244	     98.36318118	      0.00000000	      0.00000000	      0.00000000	     -1.97836626	      0.48077826	      0.49222154	      0.00000000	      0.00000000	      0.00000000	      0.00000000	      0.00000000	      0.00000000	      0.00000000	      0.00000000	      0.00000000	      0.00000000
      0.13333330	      2.32483903	     -1.50852122	    154.84945390	      0.28694769	      1.07841379	     -0.15255525	     24.01475927	     -3.05323459	     -4.32570517	     96.35874631	      0.00000000	      0.00000000	      0.00000000	     22.52686643	     -7.01168228	     -0.82305099	     98.35760517	      0.00000000	      0.00000000	      0.00000000	     -1.94683182	      0.49883991	      0.52565267	      0.00000000	      0.00000000	      0.00000000	      0.00000000	      0.00000000	      0.00000000	      0.00000000	      0.00000000	      0.00000000	      0.00000000
      0.15000000	      2.83044494	     -1.57504269	    155.05919344	      0.28650644	      1.07793852	     -0.15237943	     24.47364964	     -2.96513492	     -4.60619948	     96.33612537	      0.00000000	      0.00000000	      0.00000000	     23.13194047	     -7.07948957	     -0.46513381	     98.51430040	      0.00000000	      0.00000000	      0.00000000	     -1.34384306	      0.69636378	      0.75257986	      0.00000000	      0.00000000	      0.00000000	      0.00000000	      0.00000000	      0.00000000	      0.00000000	      0.00000000	      0.00000000	      0.00000000
      0.16666670	      2.86040714	     -1.59017809	    155.07221131	      0.28629814	      1.07810715	     -0.15254771	     24.46791840	     -2.95718567	     -4.60512010	     96.34915054	      0.00000000	      0.00000000	      0.00000000	     23.10612275	     -7.07683369	     -0.46352951	     98.52336364	      0.00000000	      0.00000000	      0.00000000	     -1.33989522	      0.69383737	      0.75384673	      0.00000000	      0.00000000	      0.00000000	      0.00000000	      0.00000000	      0.00000000	      0.00000000	      0.00000000	      0.00000000	      0.00000000
      0.18333330	      2.86504065	     -1.59457257	    155.09616520	      0.28623055	      1.07811092	     -0.15272679	     24.42971590	     -2.92690885	     -4.58884486	     96.43254499	      0.00000000	      0.00000000	      0.00000000	     23.07465694	     -7.07397311	     -0.44504320	     98.53820014	      0.00000000	      0.00000000	      0.00000000	     -1.28202683	      0.67751592	      0.76542032	      0.00000000	      0.00000000	      0.00000000	      0.00000000	      0.00000000	      0.00000000	      0.00000000	      0.00000000	      0.00000000	      0.00000000
      0.20000000	      2.86316473	     -1.59769703	    155.09880515	      0.28595992	      1.07803651	     -0.15302082	     24.37557764	     -2.91223581	     -4.56334383	     96.54512130	      0.00000000	      0.00000000	      0.00000000	     23.03591514	     -7.08165885	     -0.42775986	     98.57152691	      0.00000000	      0.00000000	      0.00000000	     -1.20258253	      0.65830731	      0.78523566	      0.00000000	      0.00000000	      0.00000000	      0.00000000	      0.00000000	      0.00000000	      0.00000000	      0.00000000	      0.00000000	      0.00000000
      0.21666670	      2.83618358	     -1.56635757	    155.07139200	      0.28564083	      1.07793668	     -0.15329075	     24.33572004	     -2.89324624	     -4.53009708	     96.80761353	      0.00000000	      0.00000000	      0.00000000	     22.98183023	     -7.08815746	     -0.42099250	     98.66274223	      0.00000000	      0.00000000	      0.00000000	     -1.12603712	      0.66058340	      0.80647627	      0.00000000	      0.00000000	      0.00000000	      0.00000000	      0.00000000	      0.00000000	      0.00000000	      0.00000000	      0.00000000	      0.00000000
      0.23333330	      2.81022202	     -1.55342867	    155.07345694	      0.28530887	      1.07770968	     -0.15352696	     24.29711439	     -2.87672962	     -4.49648321	     97.03296554	      0.00000000	      0.00000000	      0.00000000	     22.94000743	     -7.10876076	     -0.42804262	     98.71869871	      0.00000000	      0.00000000	      0.00000000	     -1.06656628	      0.66806683	      0.82589257	      0.00000000	      0.00000000	      0.00000000	      0.00000000	      0.00000000	      0.00000000	      0.00000000	      0.00000000	      0.00000000	      0.00000000
      0.25000000	      2.83907846	     -1.57568748	    155.06542571	      0.28498228	      1.07741342	     -0.15382714	     24.27210714	     -2.88049659	     -4.48869861	     97.05075909	      0.00000000	      0.00000000	      0.00000000	     22.92101382	     -7.11452830	     -0.42707509	     98.74217805	      0.00000000	      0.00000000	      0.00000000	     -1.06043849	      0.66676263	      0.82940643	      0.00000000	      0.00000000	      0.00000000	      0.00000000	      0.00000000	      0.00000000	      0.00000000	      0.00000000	      0.00000000	      0.00000000
      0.26666670	      2.77153609	     -1.56233450	    155.04908201	      0.28476772	      1.07696377	     -0.15401269	     24.21377633	     -2.89786160	     -4.42462104	     97.18159350	      0.00000000	      0.00000000	      0.00000000	     22.83437131	     -7.13492505	     -0.45387951	     98.91733090	      0.00000000	      0.00000000	      0.00000000	     -0.93993590	      0.64088385	      0.85539197	      0.00000000	      0.00000000	      0.00000000	      0.00000000	      0.00000000	      0.00000000	      0.00000000	      0.00000000	      0.00000000	      0.00000000
      0.28333330	      2.79175260	     -1.59032313	    155.06300894	      0.28442233	      1.07664519	     -0.15428628	     24.21342851	     -2.89365984	     -4.41995812	     97.18001333	      0.00000000	      0.00000000	      0.00000000	     22.79682165	     -7.13787704	     -0.46010552	     98.93824912	      0.00000000	      0.00000000	      0.00000000	     -0.93399581	      0.63588878	      0.86050476	      0.00000000	      0.00000000	      0.00000000	      0.00000000	      0.00000000	      0.00000000	      0.00000000	      0.00000000	      0.00000000	      0.00000000
      0.30000000	      2.80670834	     -1.61121955	    155.08926627	      0.28410321	      1.07623107	     -0.15448531	     24.23156646	     -2.89391826	     -4.41367365	     97.16952186	      0.00000000	      0.00000000	      0.00000000	     22.73394806	     -7.14297945	     -0.46670279	     98.96980919	      0.00000000	      0.00000000	      0.00000000	     -0.91823049	      0.62613553	      0.86665062	      0.00000000	      0.00000000	      0.00000000	      0.00000000	      0.00000000	      0.00000000	      0.00000000	      0.00000000	      0.00000000	      0.00000000
